<?xml version="1.0" standalone="no"?>
<!DOCTYPE svg PUBLIC "-//W3C//DTD SVG 1.1//EN" "http://www.w3.org/Graphics/SVG/1.1/DTD/svg11.dtd" >
<svg xmlns="http://www.w3.org/2000/svg">
<metadata>Generated by IcoMoon</metadata>
<defs>
<font id="icomoon" horiz-adv-x="1024">
<font-face units-per-em="1024" ascent="960" descent="-64" />
<missing-glyph horiz-adv-x="1024" />
<glyph unicode="&#x20;" horiz-adv-x="512" d="" />
<glyph unicode="&#xe900;" glyph-name="add-plus" d="M986.537 355.59h-379.629v-379.629h-189.815v379.629h-379.629v189.815h379.629v379.629h189.815v-379.629h379.629v-189.815z" />
<glyph unicode="&#xe901;" glyph-name="arrow-left" d="M772.543-24.039l-555.665 474.537 555.665 474.536 34.579-40.432-508.316-434.105 508.316-434.106z" />
<glyph unicode="&#xe902;" glyph-name="arrow-right" d="M251.457-24.039l-34.579 40.431 508.319 434.106-508.319 434.105 34.579 40.432 555.664-474.536z" />
<glyph unicode="&#xe903;" glyph-name="calendar" d="M12.488 44.644c0-51.707 47.944-93.659 107.038-93.659h784.948c59.095 0 107.038 41.952 107.038 93.659v530.732h-999.024v-530.732zM726.076 427.083c0 12.877 12.043 23.415 26.761 23.415h89.198c14.718 0 26.759-10.537 26.759-23.415v-78.049c0-12.877-12.041-23.415-26.759-23.415h-89.198c-14.718 0-26.761 10.537-26.761 23.415v78.049zM726.076 177.327c0 12.877 12.043 23.415 26.761 23.415h89.198c14.718 0 26.759-10.537 26.759-23.415v-78.049c0-12.877-12.041-23.415-26.759-23.415h-89.198c-14.718 0-26.761 10.537-26.761 23.415v78.049zM440.642 427.083c0 12.877 12.041 23.415 26.759 23.415h89.198c14.718 0 26.759-10.537 26.759-23.415v-78.049c0-12.877-12.041-23.415-26.759-23.415h-89.198c-14.718 0-26.759 10.537-26.759 23.415v78.049zM440.642 177.327c0 12.877 12.041 23.415 26.759 23.415h89.198c14.718 0 26.759-10.537 26.759-23.415v-78.049c0-12.877-12.041-23.415-26.759-23.415h-89.198c-14.718 0-26.759 10.537-26.759 23.415v78.049zM155.206 427.083c0 12.877 12.042 23.415 26.759 23.415h89.198c14.718 0 26.761-10.537 26.761-23.415v-78.049c0-12.877-12.043-23.415-26.761-23.415h-89.198c-14.718 0-26.759 10.537-26.759 23.415v78.049zM155.206 177.327c0 12.877 12.042 23.415 26.759 23.415h89.198c14.718 0 26.761-10.537 26.761-23.415v-78.049c0-12.877-12.043-23.415-26.761-23.415h-89.198c-14.718 0-26.759 10.537-26.759 23.415v78.049zM904.474 825.131h-107.038v93.659c0 17.171-16.057 31.219-35.68 31.219h-71.358c-19.626 0-35.68-14.049-35.68-31.219v-93.659h-285.436v93.659c0 17.171-16.054 31.219-35.68 31.219h-71.358c-19.624 0-35.679-14.049-35.679-31.219v-93.659h-107.038c-59.094 0-107.038-41.951-107.038-93.659v-93.658h999.024v93.658c0 51.707-47.943 93.659-107.038 93.659z" />
<glyph unicode="&#xe904;" glyph-name="clock" d="M512 950.009c-275.94 0-499.512-223.572-499.512-499.512s223.572-499.512 499.512-499.512c275.941 0 499.512 223.572 499.512 499.512s-223.572 499.512-499.512 499.512zM627.008 244.851l-177.649 129.109c-6.244 4.63-9.868 11.883-9.868 19.536v338.984c0 13.294 10.877 24.17 24.169 24.17h96.681c13.292 0 24.169-10.876 24.169-24.17v-277.349l127.9-93.054c10.877-7.857 13.092-22.963 5.237-33.839l-56.8-78.149c-7.855-10.675-22.963-13.092-33.839-5.237z" />
<glyph unicode="&#xe905;" glyph-name="close" d="M1011.512 849.393l-100.617 100.616-398.895-398.897-398.896 398.897-100.616-100.616 398.895-398.895-398.895-398.898 100.616-100.614 398.896 398.895 398.895-398.895 100.617 100.614-398.895 398.898 398.895 398.895z" />
<glyph unicode="&#xe906;" glyph-name="credit-card" d="M96.78 213.229v533.853h830.439v-533.853h-830.439zM927.22 806.4h-830.439c-15.732 0-30.819-6.25-41.944-17.374s-17.374-26.212-17.374-41.943v-593.17c0-15.732 6.249-30.82 17.374-41.944s26.212-17.373 41.944-17.373h830.439c15.732 0 30.82 6.249 41.944 17.373s17.373 26.212 17.373 41.944v593.17c0 15.732-6.249 30.819-17.373 41.943s-26.212 17.374-41.944 17.374zM867.902 450.498h-237.268v-177.951h237.268v177.951z" />
<glyph unicode="&#xe907;" glyph-name="download" d="M543.637 314.021v357.925h-63.273v-357.483l-121.734 141.474-47.961-41.125 201.393-234.231 202.153 234.104-47.958 41.317-122.62-141.981zM512 925.034c-262.071 0-474.537-212.466-474.537-474.536 0-262.072 212.466-474.537 474.537-474.537s474.537 212.465 474.537 474.537c0 262.070-212.465 474.536-474.537 474.536zM512 39.232c-226.766 0-411.265 184.5-411.265 411.266 0 226.764 184.499 411.264 411.265 411.264s411.266-184.501 411.266-411.264c0-226.766-184.5-411.266-411.266-411.266z" />
<glyph unicode="&#xe908;" glyph-name="heart" d="M512-7.031c-14.578 0-28.633 5.281-39.586 14.875-41.367 36.172-81.25 70.164-116.438 100.148l-0.18 0.156c-103.164 87.914-192.25 163.836-254.234 238.625-69.289 83.609-101.563 162.883-101.563 249.484 0 84.141 28.852 161.766 81.234 218.586 53.008 57.492 125.742 89.156 204.828 89.156 59.109 0 113.242-18.688 160.891-55.539 24.047-18.602 45.844-41.367 65.047-67.922 19.211 26.555 41 49.32 65.055 67.922 47.648 36.852 101.781 55.539 160.891 55.539 79.078 0 151.82-31.664 204.828-89.156 52.383-56.82 81.227-134.445 81.227-218.586 0-86.602-32.266-165.875-101.555-249.477-61.984-74.797-151.063-150.711-254.211-238.617-35.25-30.031-75.195-64.078-116.656-100.336-10.945-9.578-25.008-14.859-39.578-14.859zM286.063 844.016c-62.133 0-119.211-24.797-160.734-69.828-42.141-45.711-65.352-108.898-65.352-177.93 0-72.836 27.070-137.977 87.766-211.211 58.664-70.789 145.922-145.148 246.953-231.25l0.188-0.156c35.32-30.102 75.359-64.227 117.031-100.664 41.922 36.508 82.023 70.688 117.414 100.836 101.023 86.102 188.273 160.445 246.938 231.234 60.688 73.234 87.758 138.375 87.758 211.211 0 69.031-23.211 132.219-65.352 177.93-41.516 45.031-98.602 69.828-160.727 69.828-45.516 0-87.305-14.469-124.203-43-32.883-25.438-55.789-57.594-69.219-80.094-6.906-11.57-19.063-18.477-32.523-18.477s-25.617 6.906-32.523 18.477c-13.422 22.5-36.328 54.656-69.219 80.094-36.898 28.531-78.688 43-124.195 43z" />
<glyph unicode="&#xe909;" glyph-name="heart-active" d="M914.544 881.699c-106.926 104.138-265.948 85.406-364.092-30.327l-38.437-45.267-38.44 45.267c-97.949 115.733-257.165 134.465-364.089 30.327-122.534-119.524-128.973-334.042-19.317-463.6l377.555-445.54c24.389-28.767 63.998-28.767 88.389 0l377.554 445.54c109.85 129.558 103.412 344.076-19.121 463.6z" />
<glyph unicode="&#xe90a;" glyph-name="home" d="M512 869.898l-380.895-233.47v-613.214h241.332v330.794h281.233v-330.794h239.224v614.897l-380.893 231.786zM512 925.034l425.707-250.745v-698.328h-328.846v330.794h-191.613v-330.794h-330.953v696.078l425.706 252.995z" />
<glyph unicode="&#xe90b;" glyph-name="home-active" d="M938.576-24.039h-331.781v337.171h-189.59v-337.171h-331.781v700.801l426.576 248.272 426.576-246.579v-702.494z" />
<glyph unicode="&#xe90c;" glyph-name="library" d="M585.476 908.808l401.061-900.701-46.535-20.82-401.058 900.702 46.532 20.819zM37.463-12.101v925.808h51.435v-925.808h-51.435zM346.067-12.101v925.808h51.435v-925.808h-51.435z" />
<glyph unicode="&#xe90d;" glyph-name="library-active" d="M605.394 898.265l381.143-855.969-89.612-39.569-381.14 855.969 89.61 39.569zM37.463 13.2v879.828h97.757v-879.828h-97.757zM281.86 13.2v879.828h97.76v-879.828h-97.76z" />
<glyph unicode="&#xe90e;" glyph-name="music" d="M341.964 788.473v-535.85c-31.207 38.612-78.878 63.408-132.25 63.408-93.756 0-170.036-76.278-170.036-170.034s76.28-170.036 170.036-170.036c93.755 0 170.035 76.281 170.035 170.036v611.893l566.789 120.501v-510.698c-31.197 38.612-78.855 63.408-132.251 63.408-93.756 0-170.036-76.281-170.036-170.036s76.281-170.034 170.036-170.034c93.756 0 170.036 76.278 170.036 170.034v663.969l-642.36-136.56zM209.714 13.747c-72.927 0-132.25 59.335-132.25 132.251 0 72.936 59.324 132.248 132.25 132.248 72.928 0 132.25-59.312 132.25-132.248 0-72.904-59.347-132.251-132.25-132.251zM814.287 128.817c-72.926 0-132.251 59.322-132.251 132.248 0 72.904 59.325 132.251 132.251 132.251s132.251-59.347 132.251-132.251c0-72.949-59.35-132.248-132.251-132.248z" />
<glyph unicode="&#xe90f;" glyph-name="next" d="M14.616 926.66l825.021-476.278-825.021-476.279v952.558zM1005.604 874.598h-154.26v-848.433h154.26v848.433z" />
<glyph unicode="&#xe910;" glyph-name="pause" d="M402.515 950.009h-222.006v-999.024h222.006v999.024zM846.523 950.009h-222.006v-999.024h222.006v999.024z" />
<glyph unicode="&#xe911;" glyph-name="play" d="M916.195 450.498l-822.003 474.536v-949.073l822.003 474.537z" />
<glyph unicode="&#xe912;" glyph-name="prev" d="M1014.582-37.181l-844.664 487.619 844.664 487.618v-975.238zM0 16.126h157.933v868.632h-157.933v-868.632z" />
<glyph unicode="&#xe913;" glyph-name="repeat" d="M964.394 211.468l-157.434 90.896c-31.78 18.348-71.658-4.616-71.658-41.372v-55.174h-433.186c-127.194 0.002-230.674 103.48-230.674 230.676 0 19.728-15.994 35.72-35.72 35.72-19.728 0-35.72-15.994-35.72-35.72 0-166.588 135.53-302.116 302.116-302.116h433.182v-55.174c0-36.694 39.826-59.752 71.658-41.372l157.434 90.894c31.78 18.344 31.834 64.362 0.002 82.742zM721.884 761.622h-433.186v55.176c0 36.694-39.826 59.752-71.658 41.372l-157.434-90.894c-31.778-18.346-31.834-64.364 0-82.744l157.434-90.896c31.78-18.348 71.658 4.618 71.658 41.372v55.174h433.186c127.196 0 230.674-103.478 230.674-230.674 0-19.728 15.994-35.72 35.72-35.72 19.728 0 35.72 15.994 35.72 35.72 0.002 166.586-135.528 302.114-302.114 302.114z" />
<glyph unicode="&#xe914;" glyph-name="round" d="M512 925.034c-93.853 0-185.601-27.831-263.638-79.974s-138.86-126.255-174.776-212.965c-35.917-86.71-45.314-182.125-27.004-274.175 18.31-92.053 63.505-176.608 129.87-242.97 66.365-66.365 150.921-111.561 242.971-129.871 92.050-18.312 187.464-8.914 274.175 27.004 86.71 35.915 160.823 96.738 212.965 174.774 52.144 78.039 79.974 169.784 79.974 263.64 0 125.855-49.996 246.554-138.989 335.548s-209.693 138.989-335.547 138.989v0zM512 213.229c-46.927 0-92.799 13.914-131.819 39.986s-69.43 63.128-87.387 106.484c-17.96 43.355-22.658 91.061-13.504 137.086 9.156 46.028 31.754 88.304 64.937 121.486s75.459 55.781 121.484 64.934c46.028 9.156 93.733 4.458 137.089-13.502 43.355-17.957 80.411-48.368 106.484-87.387 26.070-39.019 39.986-84.892 39.986-131.819 0-62.929-24.998-123.277-69.495-167.774s-104.845-69.495-167.774-69.495z" />
<glyph unicode="&#xe915;" glyph-name="search" d="M744.293 245.862l204.083-239.481-35.398-30.42-204.638 239.481c-70.426-53.463-149.699-80.194-237.823-80.194-53.465 0-104.623 10.415-153.478 31.247s-90.887 48.855-126.101 84.068c-35.214 35.213-63.236 77.245-84.066 126.102-20.831 48.855-31.247 100.012-31.248 153.475s10.415 104.623 31.248 153.478c20.833 48.855 48.856 90.889 84.066 126.101s77.244 63.234 126.101 84.067c48.857 20.832 100.015 31.248 153.478 31.248 53.46 0 104.62-10.416 153.478-31.248 48.855-20.832 90.889-48.854 126.099-84.067s63.233-77.246 84.068-126.101c20.832-48.855 31.249-100.015 31.247-153.478 0-54.936-10.692-106.926-32.076-155.965-21.387-49.040-51.068-91.81-89.046-128.315l0.005 0.002zM470.523 181.708c63.048 0 121.307 15.577 174.769 46.737 53.465 31.157 95.776 73.466 126.931 126.929 31.157 53.465 46.734 111.721 46.737 174.772 0 63.051-15.577 121.309-46.737 174.772s-73.468 95.772-126.931 126.928c-53.46 31.156-111.718 46.734-174.769 46.734-63.053 0-121.312-15.578-174.772-46.734-53.462-31.156-95.771-73.466-126.929-126.928s-46.735-111.721-46.734-174.772c0.001-63.051 15.579-121.307 46.734-174.772 31.155-53.463 73.464-95.771 126.929-126.929 53.465-31.16 111.721-46.737 174.772-46.737z" />
<glyph unicode="&#xe916;" glyph-name="search-active" d="M747.772 272.716l202.555-237.403-69.697-59.352-202.010 236.859c-65.341-43.56-137.398-65.339-216.171-65.339-52.636 0-103.002 10.252-151.1 30.762-48.096 20.51-89.479 48.098-124.148 82.764-34.668 34.669-62.256 76.051-82.764 124.149s-30.763 98.466-30.764 151.1c-0.001 52.636 10.253 103.002 30.764 151.1s48.099 89.482 82.764 124.149c34.666 34.667 76.049 62.255 124.148 82.765 48.101 20.509 98.466 30.764 151.1 30.764s103.002-10.255 151.1-30.764c48.101-20.509 89.483-48.098 124.149-82.765s62.254-76.049 82.764-124.149c20.512-48.098 30.765-98.464 30.765-151.1 0-33.395-4.173-66.065-12.523-98.009s-20.238-61.712-35.665-89.3c-15.43-27.588-33.852-52.998-55.269-76.231h0.002zM462.451 238.959c40.293 0 78.771 7.897 115.435 23.687 36.664 15.792 68.246 36.936 94.742 63.436 26.499 26.497 47.643 58.078 63.436 94.742s23.687 75.142 23.687 115.435c0 40.293-7.895 78.771-23.687 115.435s-36.936 68.246-63.436 94.745c-26.497 26.5-58.078 47.645-94.742 63.434s-75.142 23.685-115.435 23.685c-40.293 0-78.771-7.895-115.435-23.685s-68.246-36.935-94.745-63.436c-26.5-26.501-47.644-58.082-63.434-94.743s-23.685-75.139-23.685-115.435c0-40.296 7.895-78.773 23.685-115.435s36.935-68.241 63.437-94.742c26.502-26.502 58.081-47.646 94.743-63.436 36.662-15.787 75.139-23.684 115.435-23.687z" />
<glyph unicode="&#xe917;" glyph-name="shuffle" d="M1024 184.66l-213.188 213.292v-169.388h-20.87c-97.532 0-160.406 57.504-217.396 137.85-15.712-25.65-32.28-52.318-50.226-78.774 64.658-82.104 146.162-146.848 267.62-146.848h20.87v-169.372l213.19 213.24zM1024 711.29l-213.188 213.29v-169.39h-20.87c-185.526 0-277.834-151.048-359.274-284.316-79.46-130.018-148.080-242.31-284.382-242.31h-146.286v-87.772h146.286c185.526 0 277.834 151.048 359.274 284.316 79.46 130.022 148.080 242.314 284.382 242.314h20.87v-169.372l213.188 213.24zM146.286 755.192h-146.286v-87.772h146.286c97.532 0 160.406-57.504 217.396-137.85 15.712 25.65 32.28 52.318 50.226 78.774-64.66 82.108-146.164 146.848-267.622 146.848z" />
<glyph unicode="&#xe918;" glyph-name="drop" horiz-adv-x="1648" d="M212.43 950.009l618.828-617.481 618.831 617.481 190.097-190.098-808.928-808.926-808.926 808.926 190.098 190.098z" />
<glyph unicode="&#xe919;" glyph-name="external-link" d="M832.064-64h-703.999c-33.948 0-66.505 13.485-90.51 37.491s-37.49 56.563-37.49 90.509v704c0 33.948 13.486 66.505 37.49 90.509s56.562 37.491 90.51 37.491h256v-128h-256v-704h703.999v256h128v-256c0-33.946-13.485-66.502-37.491-90.509s-56.563-37.491-90.509-37.491zM492.865 338.752l-90.24 90.496 402.751 402.752h-229.311v128h447.999v-448h-128v229.44l-403.199-402.688z" />
<glyph unicode="&#xea26;" glyph-name="volume-high" horiz-adv-x="1088" d="M890.040 37.96c-12.286 0-24.566 4.686-33.942 14.056-18.744 18.746-18.744 49.136 0 67.882 87.638 87.642 135.904 204.16 135.904 328.1 0 123.938-48.266 240.458-135.904 328.098-18.744 18.746-18.744 49.138 0 67.882s49.138 18.744 67.882 0c105.77-105.772 164.022-246.4 164.022-395.98s-58.252-290.208-164.022-395.98c-9.372-9.372-21.656-14.058-33.94-14.058zM719.53 128.47c-12.286 0-24.566 4.686-33.942 14.056-18.744 18.744-18.744 49.136 0 67.882 131.006 131.006 131.006 344.17 0 475.176-18.744 18.746-18.744 49.138 0 67.882 18.744 18.742 49.138 18.744 67.882 0 81.594-81.59 126.53-190.074 126.53-305.466 0-115.39-44.936-223.876-126.53-305.47-9.372-9.374-21.656-14.060-33.94-14.060v0zM549.020 218.98c-12.286 0-24.568 4.686-33.942 14.058-18.746 18.746-18.746 49.134 0 67.88 81.1 81.1 81.1 213.058 0 294.156-18.746 18.746-18.746 49.138 0 67.882s49.136 18.744 67.882 0c118.53-118.53 118.53-311.392 0-429.922-9.372-9.368-21.656-14.054-33.94-14.054zM416.006 0c-8.328 0-16.512 3.25-22.634 9.374l-246.626 246.626h-114.746c-17.672 0-32 14.326-32 32v320c0 17.672 14.328 32 32 32h114.746l246.626 246.628c9.154 9.154 22.916 11.89 34.874 6.936 11.958-4.952 19.754-16.622 19.754-29.564v-832c0-12.944-7.796-24.612-19.754-29.564-3.958-1.64-8.118-2.436-12.24-2.436z" />
<glyph unicode="&#xea27;" glyph-name="volume" d="M719.53 128.47c-12.286 0-24.566 4.686-33.942 14.056-18.744 18.744-18.744 49.136 0 67.882 131.006 131.006 131.006 344.17 0 475.176-18.744 18.746-18.744 49.138 0 67.882 18.744 18.742 49.138 18.744 67.882 0 81.594-81.59 126.53-190.074 126.53-305.466 0-115.39-44.936-223.876-126.53-305.47-9.372-9.374-21.656-14.060-33.94-14.060v0zM549.020 218.98c-12.286 0-24.566 4.686-33.942 14.058-18.746 18.746-18.746 49.134 0 67.88 81.1 81.1 81.1 213.058 0 294.156-18.746 18.746-18.746 49.138 0 67.882s49.136 18.744 67.882 0c118.53-118.53 118.53-311.392 0-429.922-9.372-9.368-21.656-14.054-33.94-14.054zM416.006 0c-8.328 0-16.512 3.25-22.634 9.374l-246.626 246.626h-114.746c-17.672 0-32 14.326-32 32v320c0 17.672 14.328 32 32 32h114.746l246.626 246.628c9.154 9.154 22.916 11.89 34.874 6.936 11.958-4.952 19.754-16.622 19.754-29.564v-832c0-12.944-7.796-24.612-19.754-29.564-3.958-1.64-8.118-2.436-12.24-2.436z" />
<glyph unicode="&#xea28;" glyph-name="volume-low" d="M549.020 218.98c-12.286 0-24.566 4.686-33.942 14.058-18.746 18.746-18.746 49.134 0 67.88 81.1 81.1 81.1 213.058 0 294.156-18.746 18.746-18.746 49.138 0 67.882s49.136 18.744 67.882 0c118.53-118.53 118.53-311.392 0-429.922-9.372-9.368-21.656-14.054-33.94-14.054zM416.006 0c-8.328 0-16.512 3.25-22.634 9.374l-246.626 246.626h-114.746c-17.672 0-32 14.326-32 32v320c0 17.672 14.328 32 32 32h114.746l246.626 246.628c9.154 9.154 22.916 11.89 34.874 6.936 11.958-4.952 19.754-16.622 19.754-29.564v-832c0-12.944-7.796-24.612-19.754-29.564-3.958-1.64-8.118-2.436-12.24-2.436z" />
<glyph unicode="&#xea2a;" glyph-name="mute" d="M960 340.852v-84.852h-84.852l-107.148 107.148-107.148-107.148h-84.852v84.852l107.148 107.148-107.148 107.148v84.852h84.852l107.148-107.148 107.148 107.148h84.852v-84.852l-107.148-107.148 107.148-107.148zM416.006 0c-8.328 0-16.512 3.25-22.634 9.374l-246.626 246.626h-114.746c-17.672 0-32 14.326-32 32v320c0 17.672 14.328 32 32 32h114.746l246.626 246.628c9.154 9.154 22.916 11.89 34.874 6.936 11.958-4.952 19.754-16.622 19.754-29.564v-832c0-12.944-7.796-24.612-19.754-29.564-3.958-1.64-8.118-2.436-12.24-2.436z" />
</font>
</defs>
</svg>
